<svg xmlns="http://www.w3.org/2000/svg" aria-hidden="true" style="position:absolute;width:0;height:0;overflow:hidden">
    <defs>
        <symbol id="burger" viewBox="0 0 32 32">
            <path stroke-linecap="round" stroke-linejoin="round" stroke-width="2.286"
                d="M22.667 13.333H4M28 8H4M28 18.667H4M22.667 24H4" />
        </symbol>
        <symbol id="arrow-right" viewBox="0 0 43 32">
            <path stroke-linecap="round" stroke-linejoin="round" stroke-width="5.333"
                d="M3.555 16h35.556m0 0L25.778 2.667M39.111 16 25.778 29.333" />
        </symbol>
        <symbol id="lock" viewBox="0 0 32 32">
            <path stroke-linejoin="round" stroke-linecap="round" stroke-miterlimit="4" stroke-width="2.6667"
                d="M23.778 14.444v-4.667c0-4.296-3.482-7.778-7.778-7.778s-7.778 3.482-7.778 7.778v4.667M9.467 30h13.067c2.614 0 3.92 0 4.919-0.509 0.878-0.447 1.592-1.161 2.039-2.039 0.509-0.998 0.509-2.305 0.509-4.919v-0.622c0-2.614 0-3.92-0.509-4.919-0.447-0.878-1.161-1.592-2.039-2.039-0.998-0.509-2.305-0.509-4.919-0.509h-13.067c-2.614 0-3.92 0-4.919 0.509-0.878 0.447-1.592 1.161-2.039 2.039-0.509 0.998-0.509 2.305-0.509 4.919v0.622c0 2.614 0 3.92 0.509 4.919 0.447 0.878 1.161 1.592 2.039 2.039 0.998 0.509 2.305 0.509 4.919 0.509z">
            </path>
        </symbol>
        <symbol id="mail" viewBox="0 0 38 32">
            <path stroke-linecap="round" stroke-linejoin="round" stroke-width="2.909"
                d="M35.03 26.182 23.757 16m-9.697 0L2.787 26.182M1.939 7.515l13.856 9.699c1.122.785 1.683 1.178 2.293 1.33a3.404 3.404 0 0 0 1.642 0c.61-.152 1.171-.545 2.293-1.33l13.856-9.699M10.085 29.576h17.648c2.851 0 4.277 0 5.366-.555a5.09 5.09 0 0 0 2.225-2.225c.555-1.089.555-2.515.555-5.366V10.569c0-2.851 0-4.277-.555-5.366a5.09 5.09 0 0 0-2.225-2.225c-1.089-.555-2.515-.555-5.366-.555H10.085c-2.851 0-4.277 0-5.366.555a5.09 5.09 0 0 0-2.225 2.225c-.555 1.089-.555 2.515-.555 5.366V21.43c0 2.851 0 4.277.555 5.366a5.09 5.09 0 0 0 2.225 2.225c1.089.555 2.515.555 5.366.555z" />
        </symbol>
        <symbol id="trash" viewBox="0 0 32 32">
            <path stroke-linecap="round" stroke-linejoin="round" stroke-width="3.2"
                d="M11.6 2.8h8.8M2.8 7.2h26.4m-2.933 0-1.029 15.428c-.154 2.315-.232 3.472-.731 4.35a4.397 4.397 0 0 1-1.904 1.781c-.909.44-2.069.44-4.389.44h-4.427c-2.32 0-3.48 0-4.389-.44a4.403 4.403 0 0 1-1.904-1.781c-.5-.878-.577-2.035-.731-4.35L5.734 7.2m7.333 6.6v7.333m5.866-7.333v7.333" />
        </symbol>
        <symbol id="x-close" viewBox="0 0 32 32">
            <path stroke-linecap="round" stroke-linejoin="round" stroke-width="5.333"
                d="M28.444 3.556 3.555 28.445m.001-24.889 24.889 24.889" />
        </symbol>
        <symbol id="logo" viewBox="0 0 32 32">
            <path fill="#f6f6f6" style="fill: var(--color1, #f6f6f6)" d="M4 0l12.257 12.129 11.743 11.871v-24h-24z">
            </path>
            <path fill="#f6f6f6" style="fill: var(--color1, #f6f6f6)"
                d="M7.343 3.171l8.957 8.871 8.443 8.614h-17.4v-17.486z"></path>
            <path fill="#4f2ee8" style="fill: var(--color2, #4f2ee8)"
                d="M24.8 20.714l-8.957-8.871-8.443-8.614h17.4v17.486z"></path>
            <path fill="#4f2ee8" style="fill: var(--color2, #4f2ee8)" d="M10.943 6.771l10.2 10.2h-10.2v-10.2z"></path>
            <path fill="#f6f6f6" style="fill: var(--color1, #f6f6f6)" d="M10.943 6.771l10.2 10.2v-10.2h-10.2z"></path>
        </symbol>
        <symbol id="logo_dark" viewBox="0 0 32 32">
            <path fill="#f6f6f6" style="fill: var(--color1, #f6f6f6)" d="M0 0l16.343 16.171 15.657 15.829v-32h-32z">
            </path>
            <path fill="#f6f6f6" style="fill: var(--color1, #f6f6f6)"
                d="M4.457 4.229l11.943 11.829 11.257 11.486h-23.2v-23.314z"></path>
            <path fill="#4f2ee8" style="fill: var(--color2, #4f2ee8)"
                d="M27.733 27.618l-11.943-11.829-11.257-11.486h23.2v23.314z"></path>
            <path fill="#4f2ee8" style="fill: var(--color2, #4f2ee8)" d="M9.257 9.029l13.6 13.6h-13.6v-13.6z"></path>
            <path fill="#f6f6f6" style="fill: var(--color1, #f6f6f6)" d="M9.257 9.029l13.6 13.6v-13.6h-13.6z"></path>
        </symbol>
        <symbol id="arrow-down" viewBox="0 0 60 32">
            <path d="M3.168 3h53.667L32.712 30.27c-.719.812-1.694 1.269-2.71 1.269s-1.991-.456-2.71-1.269L3.169 3z" />
        </symbol>
        <symbol id="arrow-up" viewBox="0 0 55 32">
            <path
                d="M1.091 25.309 25.527.8c.291-.291.606-.496.945-.617.339-.122.703-.183 1.091-.183s.752.061 1.091.183c.339.12.655.326.946.617l24.509 24.509c.679.679 1.018 1.527 1.018 2.545s-.364 1.891-1.091 2.618c-.727.727-1.576 1.091-2.545 1.091s-1.818-.364-2.545-1.091L27.564 9.09 6.182 30.472c-.679.679-1.515 1.018-2.508 1.018-.995 0-1.856-.364-2.583-1.091S0 28.823 0 27.854c0-.97.364-1.818 1.091-2.545z" />
        </symbol>
        <symbol id="user" viewBox="0 0 23 32">
            <path
                d="M.296 30.963a11.26 11.26 0 1 1 22.519 0H.297zm11.26-12.667c-4.666 0-8.444-3.779-8.444-8.444s3.779-8.444 8.444-8.444C16.222 1.408 20 5.187 20 9.852s-3.779 8.444-8.444 8.444z" />
        </symbol>
        <symbol id="opened-book" viewBox="0 0 32 32">
            <path
                d="M31.229 9.921a15.221 15.221 0 0 0-2.138-.91v17.947A14.622 14.622 0 0 0 24 26.033c-2.764 0-5.498.806-8 2.357V10.339c-2.356-1.387-5.076-2.208-8-2.208-2.604 0-5.062.656-7.229 1.79-.48.239-.771.761-.771 1.313v18.021c0 .865.684 1.477 1.455 1.477.233 0 .465-.06.698-.179 1.76-.94 3.738-1.537 5.847-1.537 3.011 0 5.789 1.223 8 2.984 2.211-1.76 4.989-2.984 8-2.984 2.109 0 4.087.597 5.847 1.552.233.119.465.179.698.179.756 0 1.455-.612 1.455-1.477V11.234c0-.552-.291-1.074-.771-1.313zM13.091 26.958c-1.658-.612-3.36-.925-5.091-.925s-3.433.313-5.091.925V12.174a12.672 12.672 0 0 1 10.182.015v14.769zM26.182 2.909l-7.273 7.459V24.54l7.273-6.713V2.909z" />
        </symbol>
    </defs>
</svg>